<svg width="42" height="42" viewBox="0 0 42 42" fill="none" xmlns="http://www.w3.org/2000/svg">
<path d="M5.26184 15.3516C5.16346 13.3978 5.68032 11.4679 6.72622 9.84971L6.99867 9.45183L7.02118 9.43003L7.21033 9.20809L7.40848 8.98147L7.43099 8.95811C7.80928 8.5703 8.2281 8.22921 8.67994 7.93796L8.80754 7.85716L8.93514 7.78221L9.23537 7.60933C9.35696 7.5517 9.48906 7.48317 9.61065 7.42554C9.69922 7.39128 9.78779 7.34611 9.87636 7.31185C10.043 7.24176 10.2201 7.17323 10.3973 7.1156C10.4573 7.08601 10.5203 7.06265 10.5849 7.04708L10.6566 7.01826L10.735 6.98945C11.5426 6.74804 12.3728 6.58139 13.2119 6.50507L13.125 6.51525V4.77463C13.125 4.07672 13.688 3.51242 14.3842 3.51242C15.0805 3.51242 15.645 4.07672 15.645 4.77463V10.2762C15.645 10.9741 15.0805 11.54 14.3842 11.54C13.688 11.54 13.125 10.9741 13.125 10.2762L13.1251 9.00426C12.2985 9.08703 11.4868 9.2927 10.717 9.61849C8.73046 10.5122 7.78304 12.2141 7.69326 14.9112L7.68619 15.3454V16.0229H34.315V15.3282C34.366 14.0791 34.1153 12.8363 33.5839 11.7133C33.0735 10.7523 32.2569 10.0063 31.2706 9.60135C30.6426 9.33097 29.9847 9.14233 29.3124 9.03941L28.875 8.98625L28.8751 10.2698C28.8751 10.9647 28.3112 11.5276 27.6151 11.5276C26.9189 11.5276 26.3551 10.9647 26.3551 10.2698L26.355 8.89175L15.6573 8.8927V6.38982L26.355 6.38925L26.3551 4.76723C26.3488 4.07233 26.9095 3.50478 27.6056 3.50003C28.3018 3.49534 28.8703 4.05346 28.8751 4.74836L28.8761 6.50557C29.4875 6.5659 30.0939 6.67256 30.6907 6.82495L31.2841 6.99256C31.3322 7.00191 31.3682 7.01437 31.4343 7.03773C31.5003 7.06109 31.5559 7.08445 31.6219 7.10626C31.7975 7.16389 31.9612 7.23242 32.1308 7.3025C32.2284 7.33677 32.3184 7.38193 32.395 7.4162C32.5271 7.47383 32.6622 7.54236 32.7703 7.59998C32.8814 7.65761 32.9879 7.72147 33.081 7.77286C33.1741 7.82426 33.2461 7.88189 33.3242 7.92861C33.6642 8.14822 33.9873 8.39586 34.2891 8.66825L34.5837 8.94877L34.5972 8.97213L34.803 9.19057L34.9965 9.42068L35.007 9.44249C36.1391 11.0081 36.748 12.9095 36.75 14.8575L36.7378 15.3454V16.0229H36.75V29.5928C36.75 35.5103 33.4453 38.5 26.8959 38.5H15.0891C8.55472 38.5 5.25 35.5103 5.25 29.5928V16.0229H5.26184V15.3516ZM28.2028 28.431C27.3916 28.431 26.7457 29.0971 26.7457 29.9181C26.7607 30.7391 27.4067 31.4052 28.2028 31.4052C28.9989 31.4052 29.6448 30.7391 29.6448 29.9181C29.6448 29.0971 28.9989 28.431 28.2028 28.431ZM21.0075 28.4155C20.1964 28.431 19.5504 29.0971 19.5504 29.9181C19.5504 30.7391 20.2114 31.4052 21.0075 31.4052C21.8036 31.4052 22.4496 30.7391 22.4496 29.9026C22.4345 29.0971 21.8036 28.431 21.0075 28.4155ZM13.7972 28.4155C12.9861 28.4155 12.3401 29.0971 12.3552 29.9181C12.3552 30.7391 13.0011 31.4052 13.7972 31.4052C14.5933 31.4052 15.2393 30.7236 15.2393 29.9026C15.2393 29.0816 14.5933 28.4155 13.7972 28.4155ZM28.2028 22.0798C27.3916 22.0798 26.7607 22.7459 26.7607 23.5669C26.7607 24.3879 27.4067 25.054 28.2028 25.054C28.9989 25.054 29.6448 24.3879 29.6448 23.5669C29.6448 22.7459 28.9989 22.0798 28.2028 22.0798ZM21.0075 22.0643C20.1964 22.0798 19.5504 22.7459 19.5504 23.5669C19.5504 24.3879 20.2114 25.054 21.0075 25.054C21.8036 25.054 22.4496 24.3879 22.4496 23.5514C22.4496 22.7459 21.8036 22.0798 21.0075 22.0643ZM13.8122 22.0643C13.0011 22.0643 12.3552 22.7459 12.3552 23.5669C12.3552 24.3879 13.0011 25.054 13.7972 25.054C14.6084 25.054 15.2543 24.3724 15.2393 23.5514C15.2393 22.7304 14.5933 22.0643 13.8122 22.0643Z" fill="#2B2B2B"/>
</svg>
