<svg width="18" height="19" viewBox="0 0 18 19" fill="none" xmlns="http://www.w3.org/2000/svg">
<g clip-path="url(#clip0_158_76)">
<path d="M17.6416 13.8775L17.6297 1.86166C17.6297 1.18083 17.1878 0.703064 16.4711 0.703064H4.45519C3.78632 0.703064 3.33244 1.21667 3.33244 1.78999C3.33244 2.36331 3.84604 2.85302 4.40742 2.85302H8.56401L14.3928 2.66192L12.1712 4.60883L0.334438 16.4694C0.119443 16.6844 0 16.9592 0 17.2219C0 17.7953 0.513602 18.3327 1.11081 18.3327C1.38554 18.3327 1.64831 18.2372 1.86329 18.0102L13.7239 6.16157L15.6947 3.92801L15.4797 9.50597V13.9253C15.4797 14.4867 15.9695 15.0122 16.5547 15.0122C17.128 15.0122 17.6416 14.5226 17.6416 13.8775Z" fill="#1D1D1D" fill-opacity="0.85"/>
</g>
<defs>
<clipPath id="clip0_158_76">
<rect width="18" height="17.6655" fill="white" transform="translate(0 0.667236)"/>
</clipPath>
</defs>
</svg>
