<svg width="442" height="122" viewBox="0 0 442 122" fill="none" xmlns="http://www.w3.org/2000/svg">
<path d="M177.729 35.4338L155.845 89.3616H139.634L118.019 35.4338H136.391L147.885 70.9017L159.232 35.4338H177.75H177.729Z" fill="#2B2B2B"/>
<path fill-rule="evenodd" clip-rule="evenodd" d="M247.634 89.3616L266.007 35.4338H246.824L237.638 71.2958L227.02 35.4338L218.683 58.6643L229.387 89.3616H247.634ZM172.378 35.4338L191.021 89.3616L198.5 71.2958L190.5 35.4338H172.378Z" fill="#2B2B2B"/>
<path d="M209.123 89.3616L218.683 58.6643L227.02 35.4338H210.5L198.5 71.2958L191.021 89.3616H209.123Z" fill="#37AA99"/>
<path d="M288.229 48.876C288.229 54.2688 288.229 55.2229 288.229 55.2229C288.229 57.1519 288.229 59.8483 288.292 63.1669V88.9278H271V35H288.292V42.4254C288.292 42.4254 288.229 48.6686 288.229 48.8968V48.876Z" fill="#2B2B2B"/>
<path d="M377.688 75.3406V89.3618C376.482 89.9011 374.861 90.4404 373.095 90.4404C365.8 90.4404 359.856 86.8106 356.468 81.2727C352.145 86.9351 345.806 90.4404 337.95 90.4404C322.966 90.4404 311.203 78.037 311.203 62.3979C311.203 46.7589 322.966 34.3555 337.95 34.3555C344.165 34.3555 349.298 36.5126 353.351 40.1423V35.434H370.518V70.093C370.518 74.5524 372.949 75.3613 375.235 75.3613H377.667L377.688 75.3406ZM354.182 62.3979C354.182 55.2421 348.363 49.6004 341.338 49.6004C334.313 49.6004 328.515 55.2629 328.515 62.3979C328.515 69.533 334.189 75.2161 341.338 75.2161C348.488 75.2161 354.182 69.5537 354.182 62.3979Z" fill="#2B2B2B"/>
<path d="M442.003 62.3979C442.003 78.037 430.24 90.4404 415.38 90.4404C409.166 90.4404 404.032 88.2833 399.979 84.6535V121.864L382.688 121.739V35.434L399.979 35.5585V40.1423C404.032 36.5126 409.166 34.3555 415.38 34.3555C430.24 34.3555 442.003 46.7589 442.003 62.3979ZM424.857 62.3979C424.857 55.2421 419.183 49.6004 412.013 49.6004C404.843 49.6004 399.19 55.2629 399.19 62.3979C399.19 69.533 404.864 75.2161 412.013 75.2161C419.162 75.2161 424.857 69.5537 424.857 62.3979Z" fill="#2B2B2B"/>
<path d="M299.656 55.2437C305.257 55.2437 309.798 50.712 309.798 45.1218C309.798 39.5317 305.257 35 299.656 35C294.054 35 289.513 39.5317 289.513 45.1218C289.513 50.712 294.054 55.2437 299.656 55.2437Z" fill="#37AA99"/>
<path d="M58.7749 67.7793C58.7818 67.7823 58.7887 67.7853 58.7956 67.7883H58.7749V67.7793Z" fill="#2B2B2B"/>
<path d="M58.7749 67.7793V0H41.4967C41.5278 7.88065 41.5537 15.7613 41.5796 23.6419C41.6055 31.5226 41.6314 39.4032 41.6624 47.2839C41.8696 48.4592 42.9055 51.7751 42.9055 51.7751C42.9055 51.7751 44.1071 55.0281 46.2617 57.9873C50.5183 63.8274 56.135 66.6402 58.7749 67.7793Z" fill="#2B2B2B"/>
<path fill-rule="evenodd" clip-rule="evenodd" d="M81.2934 63.9682H122.5V60.9671C122.5 43.9256 110.898 32.5925 93.5373 32.5925C76.1762 32.5925 63.9116 44.0725 63.9116 61.114C63.9116 78.1555 76.0312 89.4885 94.0759 89.4885C109.034 89.4885 118.999 81.4505 121.692 69.5718H105.118C103.647 73.9371 99.7317 76.5185 93.8066 76.5185C86.0169 76.5185 81.977 71.7544 81.2934 63.9682ZM104.725 53.4537H82.3499C84.1109 48.8156 88.0057 45.9403 93.8066 45.9403C99.6074 45.9403 102.984 48.6896 104.725 53.4537Z" fill="#2B2B2B"/>
<path d="M55.0044 72.0487C48.1677 68.7957 41.1238 74.1684 41.1238 81.0311C41.1238 86.5088 45.5573 91 50.8195 91C56.9725 91 62.069 85.1236 60.4944 78.6596C59.79 75.7424 57.6769 73.3289 55.0044 72.0487Z" fill="#37AA99"/>
<path d="M37.374 47.137C35.9445 46.8222 33.8727 46.5074 31.3867 46.6333C29.9572 46.6963 25.4408 46.9271 22.1675 49.1518C16.2009 53.2023 13.8806 64.3464 18.6663 70.9154C21.8982 75.3226 27.4504 76.372 29.46 76.7498C32.7954 77.3794 35.613 77.0436 37.374 76.7078V89.5729C34.2871 90.2235 28.9835 90.9161 22.7061 89.4889L22.7044 89.4885C19.1816 88.6908 11.3936 86.9273 5.67653 79.688C0.103587 72.6153 0 64.7242 0 61.9959C0 54.8602 2.1546 48.69 5.92514 43.947C14.3778 33.3065 27.554 33.4324 29.6257 33.4744C32.8576 33.5584 35.4887 34.188 37.3118 34.7546C37.3118 37.5078 37.3302 40.2517 37.3486 42.9987C37.3578 44.3768 37.367 45.7557 37.374 47.137Z" fill="#2B2B2B"/>
</svg>
