<svg width="54" height="28" viewBox="0 0 54 28" fill="none" xmlns="http://www.w3.org/2000/svg">
<path d="M53.6035 10.9006L46.8698 27.4938H41.8818L35.2312 10.9006H40.8842L44.4206 21.8138L47.9121 10.9006H53.6099H53.6035Z" fill="#282828"/>
<path d="M18.0846 20.8552C18.0867 20.8561 17.0137 21.2961 17.0159 21.297H17.0095L18.0846 20.8552Z" fill="#282828"/>
<path d="M18.0846 20.8552V0H12.7682C12.7778 2.42482 12.7857 4.84963 12.7937 7.27445C12.8017 9.69926 12.8096 12.1241 12.8192 14.5489C12.883 14.9105 13.2017 15.9308 13.2017 15.9308C13.2017 15.9308 13.5714 16.9317 14.2344 17.8422C15.5441 19.6392 17.2723 20.5047 18.0846 20.8552Z" fill="#282828"/>
<path fill-rule="evenodd" clip-rule="evenodd" d="M24.2732 20.1476H36.9521V19.2242C36.9521 13.9806 33.3824 10.4935 28.0405 10.4935C22.6986 10.4935 18.9249 14.0258 18.9249 19.2694C18.9249 24.5129 22.654 28 28.2062 28C32.8087 28 35.8748 25.5268 36.7035 21.8718H31.6039C31.1513 23.2149 29.9465 24.0092 28.1234 24.0092C25.7265 24.0092 24.4835 22.5434 24.2732 20.1476ZM31.4828 16.9124H24.5983C25.1401 15.4852 26.3385 14.6006 28.1234 14.6006C29.9083 14.6006 30.9473 15.4465 31.4828 16.9124Z" fill="#282828"/>
<path d="M16.9244 22.1688C14.8208 21.1679 12.6535 22.821 12.6535 24.9327C12.6535 26.6181 14.0176 28 15.6368 28C17.53 28 19.0981 26.1919 18.6137 24.203C18.3969 23.3054 17.7467 22.5627 16.9244 22.1688Z" fill="#37AA99"/>
<path d="M11.4997 14.5037C11.0598 14.4068 10.4224 14.31 9.65744 14.3487C9.21759 14.3681 7.82794 14.4391 6.82076 15.1236C4.98489 16.3699 4.27095 19.7989 5.74347 21.8201C6.73789 23.1762 8.44627 23.4991 9.0646 23.6153C10.0909 23.809 10.9578 23.7057 11.4997 23.6024V27.5609C10.5499 27.7611 8.91799 27.9742 6.9865 27.5351L6.98597 27.5349C5.90205 27.2895 3.50571 26.7469 1.74663 24.5194C0.0318728 22.3432 0 19.9151 0 19.0756C0 16.8801 0.662953 14.9816 1.82312 13.5221C4.42393 10.2482 8.47815 10.2869 9.1156 10.2998C10.11 10.3256 10.9196 10.5194 11.4806 10.6937C11.4806 11.5409 11.4862 12.3851 11.4919 13.2304C11.4947 13.6544 11.4976 14.0787 11.4997 14.5037Z" fill="#282828"/>
</svg>
